<?xml version="1.0" encoding="UTF-8" standalone="no"?>
<!-- Created with Inkscape (http://www.inkscape.org/) -->

<svg
   width="186.53418mm"
   height="136.16113mm"
   viewBox="0 0 186.53418 136.16113"
   version="1.1"
   id="svg8"
   inkscape:version="1.1 (c68e22c387, 2021-05-23)"
   sodipodi:docname="Logo_HTL.svg"
   inkscape:export-filename="C:\HTL\Logos_und_Templates\Logo_HTL.png"
   inkscape:export-xdpi="150"
   inkscape:export-ydpi="150"
   xmlns:inkscape="http://www.inkscape.org/namespaces/inkscape"
   xmlns:sodipodi="http://sodipodi.sourceforge.net/DTD/sodipodi-0.dtd"
   xmlns="http://www.w3.org/2000/svg"
   xmlns:svg="http://www.w3.org/2000/svg"
   xmlns:rdf="http://www.w3.org/1999/02/22-rdf-syntax-ns#"
   xmlns:cc="http://creativecommons.org/ns#"
   xmlns:dc="http://purl.org/dc/elements/1.1/">
  <defs
     id="defs2" />
  <sodipodi:namedview
     id="base"
     pagecolor="#ffffff"
     bordercolor="#666666"
     borderopacity="1.0"
     inkscape:pageopacity="0.0"
     inkscape:pageshadow="2"
     inkscape:zoom="0.7"
     inkscape:cx="330.71429"
     inkscape:cy="163.57143"
     inkscape:document-units="mm"
     inkscape:current-layer="layer1"
     showgrid="false"
     fit-margin-top="10"
     fit-margin-left="10"
     fit-margin-right="10"
     fit-margin-bottom="10"
     inkscape:window-width="1920"
     inkscape:window-height="991"
     inkscape:window-x="-9"
     inkscape:window-y="-9"
     inkscape:window-maximized="1"
     inkscape:pagecheckerboard="0" />
  <metadata
     id="metadata5">
    <rdf:RDF>
      <cc:Work
         rdf:about="">
        <dc:format>image/svg+xml</dc:format>
        <dc:type
           rdf:resource="http://purl.org/dc/dcmitype/StillImage" />
      </cc:Work>
    </rdf:RDF>
  </metadata>
  <g
     inkscape:label="Layer 1"
     inkscape:groupmode="layer"
     id="layer1"
     transform="translate(-13.20047,-32.443068)">
    <rect
       style="fill:#fffffd;fill-opacity:1;stroke:#ffffff;stroke-width:0.293373;stroke-linecap:round;stroke-linejoin:round;stroke-dashoffset:2.91779;stroke-opacity:1"
       id="rect861"
       width="186.24063"
       height="135.86763"
       x="13.347157"
       y="32.589756" />
    <g
       id="g907"
       transform="matrix(1.2640009,0,0,1.2640009,-14.922147,-2.0715525)">
      <path
         id="path815"
         d="m 92.565232,35.318425 h 31.977158 v 31.97945 H 92.565232 v -31.97945"
         style="fill:#ffc800;fill-opacity:1;fill-rule:nonzero;stroke:none;stroke-width:0.146548"
         inkscape:connector-curvature="0" />
      <path
         id="path817"
         d="M 129.83127,72.585614 H 161.809 V 104.56392 H 129.83127 V 72.585614"
         style="fill:#96c81e;fill-opacity:1;fill-rule:nonzero;stroke:none;stroke-width:0.146548"
         inkscape:connector-curvature="0" />
      <path
         id="path819"
         d="M 129.83127,35.318425 H 161.809 v 31.97945 h -31.97773 v -31.97945"
         style="fill:#e63232;fill-opacity:1;fill-rule:nonzero;stroke:none;stroke-width:0.146548"
         inkscape:connector-curvature="0" />
      <path
         id="path821"
         d="M 48.276352,104.5748 V 92.809192 h -8.05326 V 104.5748 H 30.201182 V 72.675488 h 10.02191 v 11.498266 h 8.05326 V 72.675488 h 10.02191 V 104.5748 h -10.02191"
         style="fill:#1450a0;fill-opacity:1;fill-rule:nonzero;stroke:none;stroke-width:0.146548"
         inkscape:connector-curvature="0" />
      <path
         id="path823"
         d="M 80.534012,80.416181 V 104.57536 H 70.423372 V 80.416181 h -8.90335 v -7.740124 h 27.91733 v 7.740124 h -8.90334"
         style="fill:#1450a0;fill-opacity:1;fill-rule:nonzero;stroke:none;stroke-width:0.146548"
         inkscape:connector-curvature="0" />
      <path
         id="path825"
         d="M 124.54468,72.585614 H 107.73635 V 89.3928 h 16.80833 V 72.585614"
         style="fill:#1450a0;fill-opacity:1;fill-rule:nonzero;stroke:none;stroke-width:0.146548"
         inkscape:connector-curvature="0" />
      <path
         id="path827"
         d="M 102.68217,94.44812 V 72.586183 H 92.565802 V 104.56449 H 124.54411 V 94.44812 h -21.86194"
         style="fill:#1450a0;fill-opacity:1;fill-rule:nonzero;stroke:none;stroke-width:0.146548"
         inkscape:connector-curvature="0" />
      <path
         id="path829"
         d="m 45.620172,126.85061 h -2.71743 l -2.82448,-11.03802 h -0.0441 l -2.82561,11.03802 h -2.73747 l -4.06327,-15.74128 h 3.00251 l 2.473,10.951 h 0.0441 l 2.89259,-10.951 h 2.49418 l 2.8697,11.01684 h 0.0441 l 2.51707,-11.01684 h 2.95957 l -4.08444,15.74128"
         style="fill:#1450a0;fill-opacity:1;fill-rule:nonzero;stroke:none;stroke-width:0.146548"
         inkscape:connector-curvature="0" />
      <path
         id="path831"
         d="m 56.039942,114.66426 h -0.0452 l -2.1633,6.31471 h 4.34949 z m 4.12738,12.1875 -1.14777,-3.35572 h -6.00445 l -1.19299,3.35572 h -2.93667 l 5.8516,-15.74186 h 2.69396 l 5.80638,15.74186 h -3.07006"
         style="fill:#1450a0;fill-opacity:1;fill-rule:nonzero;stroke:none;stroke-width:0.146548"
         inkscape:connector-curvature="0" />
      <path
         id="path833"
         d="m 64.671372,126.85061 v -2.5829 h 3.33338 v -10.57548 h -3.33338 v -2.5829 h 9.58227 v 2.5829 h -3.33453 v 10.57548 h 3.33453 v 2.5829 h -9.58227"
         style="fill:#1450a0;fill-opacity:1;fill-rule:nonzero;stroke:none;stroke-width:0.146548"
         inkscape:connector-curvature="0" />
      <path
         id="path835"
         d="m 86.461752,116.67356 c 0,-1.89825 -1.63378,-2.98075 -3.4891,-2.98075 h -3.00193 v 10.57604 h 3.11356 c 1.50097,0 3.37747,-0.7957 3.37747,-3.04659 z m -3.26927,10.1782 h -6.15844 V 111.1099 h 6.1384 c 3.42212,0 6.20309,2.23028 6.20309,5.74055 v 4.19493 c 0,3.73067 -3.06949,5.80638 -6.18305,5.80638"
         style="fill:#1450a0;fill-opacity:1;fill-rule:nonzero;stroke:none;stroke-width:0.146548"
         inkscape:connector-curvature="0" />
      <path
         id="path837"
         d="m 101.38614,126.85061 v -6.7326 h -6.293538 v 6.7326 h -2.93438 v -15.74128 h 2.93438 v 6.42577 h 6.293538 v -6.42577 h 2.9361 v 15.74128 h -2.9361"
         style="fill:#1450a0;fill-opacity:1;fill-rule:nonzero;stroke:none;stroke-width:0.146548"
         inkscape:connector-curvature="0" />
      <path
         id="path839"
         d="m 116.88298,116.43142 c 0,-1.89997 -1.63263,-2.98076 -3.48852,-2.98076 -1.50097,0 -3.37746,0.79399 -3.37746,3.04659 v 5.03414 c 0,1.89825 1.63435,2.97961 3.48852,2.97961 1.50154,0 3.37746,-0.79456 3.37746,-3.04544 z m -3.37746,10.68538 c -3.42155,0 -6.40173,-1.92057 -6.40173,-5.43199 v -5.03243 c 0,-3.73124 3.17825,-5.80638 6.29067,-5.80638 3.42269,0 6.40288,2.22913 6.40288,5.73883 v 4.72445 c 0,3.73067 -3.17826,5.80752 -6.29182,5.80752"
         style="fill:#1450a0;fill-opacity:1;fill-rule:nonzero;stroke:none;stroke-width:0.146548"
         inkscape:connector-curvature="0" />
      <path
         id="path841"
         d="m 125.53788,113.69338 v 3.97396 h 6.53454 v 2.56058 h -6.53454 v 6.62384 h -2.959 v -15.74243 h 10.57605 v 2.58405 h -7.61705"
         style="fill:#1450a0;fill-opacity:1;fill-rule:nonzero;stroke:none;stroke-width:0.146548"
         inkscape:connector-curvature="0" />
      <path
         id="path843"
         d="m 135.44931,126.85061 v -15.74128 h 10.92811 v 2.5829 h -7.99143 v 3.84287 h 7.08753 v 2.58291 h -7.08753 v 4.1497 h 8.08016 v 2.5829 h -11.01684"
         style="fill:#1450a0;fill-opacity:1;fill-rule:nonzero;stroke:none;stroke-width:0.146548"
         inkscape:connector-curvature="0" />
      <path
         id="path845"
         d="m 158.93988,126.85061 -6.82134,-10.75122 h -0.0435 v 10.75122 h -2.82619 v -15.74128 h 2.84795 l 6.84309,10.73061 h 0.0452 v -10.73061 h 2.82563 v 15.74128 h -2.87085"
         style="fill:#1450a0;fill-opacity:1;fill-rule:nonzero;stroke:none;stroke-width:0.146548"
         inkscape:connector-curvature="0" />
    </g>
  </g>
</svg>
